HIERARCHY
ROOT Hips
{
	OFFSET 0.000000 0.000000 0.000000 
	CHANNELS 6 Xposition Yposition Zposition Zrotation Yrotation Xrotation
	JOINT LeftUpLeg
	{
		OFFSET 1.363060 -1.794630 0.839290 
		CHANNELS 3 Zrotation Yrotation Xrotation
		JOINT LeftLeg
		{
			OFFSET 2.448110 -6.726130 0.000000 
			CHANNELS 3 Zrotation Yrotation Xrotation
			JOINT LeftFoot
			{
				OFFSET 2.562200 -7.039590 0.000000 
				CHANNELS 3 Zrotation Yrotation Xrotation
				JOINT LeftToeBase
				{
					OFFSET 0.157640 -0.433110 2.322550 
					CHANNELS 3 Zrotation Yrotation Xrotation
					End Site
					{
						OFFSET 0.000000 0.000000 0.000000 
					}
				}
			}
		}
	}
	JOINT RightUpLeg
	{
		OFFSET -1.305520 -1.794630 0.839290 
		CHANNELS 3 Zrotation Yrotation Xrotation
		JOINT RightLeg
		{
			OFFSET -2.542530 -6.985550 0.000000 
			CHANNELS 3 Zrotation Yrotation Xrotation
			JOINT RightFoot
			{
				OFFSET -2.568260 -7.056230 0.000000 
				CHANNELS 3 Zrotation Yrotation Xrotation
				JOINT RightToeBase
				{
					OFFSET -0.164730 -0.452590 2.363150 
					CHANNELS 3 Zrotation Yrotation Xrotation
					End Site
					{
						OFFSET 0.000000 0.000000 0.000000 
					}
				}
			}
		}
	}
	JOINT Spine
	{
		OFFSET 0.028270 2.035590 -0.193380 
		CHANNELS 3 Zrotation Yrotation Xrotation
		JOINT Spine1
		{
			OFFSET 0.056720 2.048850 -0.042750 
			CHANNELS 3 Zrotation Yrotation Xrotation
			JOINT Neck1
			{
				OFFSET -0.054170 1.746240 0.172020 
				CHANNELS 3 Zrotation Yrotation Xrotation
				JOINT Head
				{
					OFFSET 0.104070 1.761360 -0.123970 
					CHANNELS 3 Zrotation Yrotation Xrotation
					End Site
					{
						OFFSET 0.000000 0.000000 0.000000 
					}
				}
			}
			JOINT LeftArm
			{
				OFFSET 3.362410 1.200890 -0.311210 
				CHANNELS 3 Zrotation Yrotation Xrotation
				JOINT LeftForeArm
				{
					OFFSET 4.983000 -0.000000 -0.000000 
					CHANNELS 3 Zrotation Yrotation Xrotation
					JOINT LeftHand
					{
						OFFSET 3.483560 -0.000000 -0.000000 
						CHANNELS 3 Zrotation Yrotation Xrotation
						JOINT LeftHandIndex1
						{
							OFFSET 0.715260 -0.000000 -0.000000 
							CHANNELS 3 Zrotation Yrotation Xrotation
							End Site
							{
								OFFSET 0.000000 0.000000 0.000000 
							}
						}
					}
				}
			}
			JOINT RightArm
			{
				OFFSET -3.136600 1.374050 -0.404650 
				CHANNELS 3 Zrotation Yrotation Xrotation
				JOINT RightForeArm
				{
					OFFSET -5.241900 -0.000000 -0.000000 
					CHANNELS 3 Zrotation Yrotation Xrotation
					JOINT RightHand
					{
						OFFSET -3.444170 -0.000000 -0.000000 
						CHANNELS 3 Zrotation Yrotation Xrotation
						JOINT RightHandIndex1
						{
							OFFSET -0.622530 -0.000000 -0.000000 
							CHANNELS 3 Zrotation Yrotation Xrotation
							End Site
							{
								OFFSET 0.000000 0.000000 0.000000 
							}
						}
					}
				}
			}
		}
	}
}
MOTION
Frames: 13
Frame Time: 0.041667
0.544216 17.029012 -5.306322 -1.114992 -5.933760 8.914013 -29.504312 -14.027940 -5.525223 -0.936303 7.784530 20.308180 0.011178 8.090826 -17.364958 0.035400 1.213900 3.337500 34.274774 12.267260 -7.031423 0.580210 -8.989518 24.641185 0.075197 -9.869840 -19.511631 -0.070800 -1.716700 4.723200 1.136844 -1.269776 -5.459262 -3.189581 -0.801977 -1.603740 4.989524 -1.563527 19.093690 -2.796400 1.101100 18.051500 -100.217922 8.670905 13.266112 23.824437 -33.336421 -4.761245 -0.105680 4.579369 19.062338 -7.125000 0.000000 0.000000 95.754911 -2.431332 16.927544 -18.987309 29.830654 -3.157535 -0.915323 -3.112580 16.921449 7.125000 0.000000 0.000000 
0.544972 17.029553 -5.309672 -1.139855 -5.975594 8.938793 -29.479149 -14.067578 -5.545675 -0.935582 7.789378 20.315278 0.004947 8.153222 -17.390961 0.035500 1.216800 3.345500 34.292792 12.284832 -7.060588 0.586341 -8.987562 24.619004 0.076033 -9.855606 -19.483105 -0.070800 -1.717100 4.724500 1.133599 -1.255167 -5.456883 -3.184027 -0.796056 -1.577495 5.007127 -1.683549 19.056026 -2.770100 1.041000 18.035200 -100.188528 8.655258 13.262597 23.809025 -33.309383 -4.754466 -0.104927 4.576801 19.076284 -7.125000 0.000000 0.000000 95.756161 -2.426903 16.914808 -18.977835 29.829582 -3.159806 -0.929125 -3.113359 16.931833 7.125000 0.000000 0.000000 
0.545945 17.030849 -5.312374 -1.137965 -6.008414 8.964863 -29.478897 -14.079294 -5.585682 -0.935501 7.797104 20.325121 0.001556 8.177788 -17.390314 0.036400 1.231700 3.386700 34.277938 12.299205 -7.091845 0.590241 -8.986153 24.602250 0.078451 -9.843953 -19.444316 -0.069200 -1.696700 4.668100 1.132069 -1.251659 -5.453171 -3.185288 -0.794146 -1.554901 5.015515 -1.712475 19.022618 -2.764800 1.026000 18.008300 -100.170769 8.658836 13.250166 23.829358 -33.328358 -4.765599 -0.108419 4.587608 19.076967 -7.125000 0.000000 0.000000 95.764462 -2.414057 16.891188 -18.975189 29.829651 -3.159550 -0.933711 -3.107910 16.953578 7.125000 0.000000 0.000000 
0.546918 17.030741 -5.315832 -1.158009 -6.042361 8.976530 -29.455312 -14.071305 -5.611895 -0.934207 7.801487 20.333650 -0.000969 8.200544 -17.399335 0.036400 1.230900 3.384300 34.293001 12.338291 -7.102047 0.594873 -8.984874 24.586628 0.077667 -9.832335 -19.433524 -0.070300 -1.710200 4.705500 1.131672 -1.243035 -5.447585 -3.191877 -0.789991 -1.553755 5.023135 -1.685680 19.001908 -2.758300 1.034500 17.967000 -100.145420 8.663653 13.267430 23.826147 -33.320274 -4.761868 -0.112214 4.583115 19.087135 -7.125000 0.000000 0.000000 95.760851 -2.424969 16.894456 -18.974170 29.827944 -3.158440 -0.931120 -3.107504 16.947774 7.125000 0.000000 0.000000 
0.548106 17.031282 -5.319182 -1.167124 -6.082330 8.994992 -29.445064 -14.074833 -5.639780 -0.934219 7.805226 20.337057 -0.004630 8.231608 -17.406075 0.036900 1.239400 3.407700 34.290855 12.370851 -7.125915 0.598538 -8.985522 24.575041 0.076284 -9.810941 -19.414300 -0.070900 -1.717500 4.725600 1.130146 -1.233445 -5.442917 -3.195402 -0.785335 -1.541086 5.029240 -1.697331 18.979111 -2.753400 1.026900 17.942500 -100.122678 8.663178 13.271302 23.827353 -33.316513 -4.761278 -0.113392 4.581296 19.100406 -7.125000 0.000000 0.000000 95.764931 -2.421896 16.878983 -18.965760 29.822036 -3.157086 -0.936630 -3.102869 16.962820 7.125000 0.000000 0.000000 
0.549403 17.031822 -5.322640 -1.172311 -6.124236 9.013496 -29.439424 -14.076761 -5.667880 -0.934667 7.808244 20.337942 -0.008481 8.262177 -17.410646 0.037500 1.249200 3.434900 34.282732 12.407723 -7.152099 0.601654 -8.987422 24.566351 0.074705 -9.787733 -19.396075 -0.071500 -1.725100 4.746600 1.128627 -1.224610 -5.437976 -3.199545 -0.780955 -1.528631 5.033009 -1.699812 18.960692 -2.751700 1.024300 17.923200 -100.101388 8.661285 13.274378 23.827608 -33.312664 -4.760568 -0.113371 4.579008 19.116694 -7.125000 0.000000 0.000000 95.771152 -2.415976 16.861510 -18.955348 29.814513 -3.155234 -0.942824 -3.097721 16.981762 7.125000 0.000000 0.000000 
0.551024 17.032362 -5.326206 -1.175618 -6.166617 9.030994 -29.436932 -14.077783 -5.692025 -0.935926 7.808920 20.332743 -0.012558 8.293333 -17.412484 0.038000 1.258700 3.461000 34.271358 12.445428 -7.179411 0.604245 -8.990219 24.560891 0.072709 -9.763140 -19.378961 -0.072100 -1.732200 4.766200 1.127437 -1.217594 -5.433239 -3.202336 -0.777448 -1.517383 5.034663 -1.699948 18.947259 -2.751400 1.022800 17.910200 -100.085024 8.661457 13.274986 23.825452 -33.307620 -4.759138 -0.112009 4.576566 19.138306 -7.125000 0.000000 0.000000 95.777523 -2.411983 16.843902 -18.944118 29.805820 -3.153193 -0.949405 -3.092269 17.004393 7.125000 0.000000 0.000000 
0.552753 17.033011 -5.329881 -1.177190 -6.209010 9.047895 -29.437026 -14.077447 -5.714595 -0.937624 7.808237 20.324089 -0.016797 8.323585 -17.410894 0.038500 1.266700 3.482800 34.257859 12.483673 -7.208195 0.606256 -8.994082 24.557983 0.070925 -9.739696 -19.362212 -0.072600 -1.738500 4.783600 1.126691 -1.213247 -5.428690 -3.202987 -0.775118 -1.506762 5.034506 -1.698182 18.937370 -2.752500 1.022200 17.902600 -100.074703 8.661245 13.269125 23.820966 -33.301754 -4.757504 -0.108989 4.574468 19.164227 -7.125000 0.000000 0.000000 95.785033 -2.407517 16.823100 -18.930621 29.795131 -3.150804 -0.955745 -3.087466 17.034271 7.125000 0.000000 0.000000 
0.554698 17.033659 -5.333555 -1.178373 -6.248969 9.062682 -29.438491 -14.075772 -5.733961 -0.939559 7.806733 20.313565 -0.020977 8.352077 -17.407121 0.038800 1.271400 3.496000 34.244114 12.518282 -7.236090 0.607942 -8.998192 24.557044 0.069627 -9.719453 -19.345736 -0.072800 -1.740800 4.789800 1.126580 -1.212453 -5.423940 -3.200975 -0.774367 -1.496335 5.033923 -1.692064 18.929954 -2.753000 1.022900 17.896700 -100.070556 8.660082 13.259452 23.812680 -33.294188 -4.755310 -0.104976 4.573472 19.194816 -7.125000 0.000000 0.000000 95.790580 -2.405464 16.809173 -18.919676 29.786359 -3.148560 -0.959331 -3.084557 17.059506 7.125000 0.000000 0.000000 
0.556860 17.034199 -5.337121 -1.178206 -6.286515 9.073390 -29.443207 -14.070918 -5.748775 -0.941474 7.804642 20.302551 -0.024703 8.376845 -17.403278 0.039100 1.275900 3.508400 34.230359 12.551440 -7.260207 0.609027 -9.002317 24.557525 0.069787 -9.707824 -19.328475 -0.072700 -1.739900 4.787500 1.126524 -1.213309 -5.418829 -3.198431 -0.774436 -1.485893 5.033107 -1.684827 18.924689 -2.753500 1.024200 17.892800 -100.068278 8.657324 13.250551 23.801228 -33.284696 -4.752483 -0.100320 4.572864 19.227641 -7.125000 0.000000 0.000000 95.798002 -2.406549 16.796035 -18.911143 29.780486 -3.146867 -0.960330 -3.084355 17.082294 7.125000 0.000000 0.000000 
0.559021 17.034740 -5.340687 -1.177802 -6.322911 9.081653 -29.449396 -14.062676 -5.761368 -0.943276 7.802387 20.291854 -0.028205 8.400010 -17.398715 0.039200 1.277500 3.512700 34.217445 12.585000 -7.281940 0.610093 -9.006372 24.558667 0.070688 -9.702363 -19.312495 -0.072700 -1.739700 4.786800 1.126295 -1.214212 -5.413308 -3.196158 -0.774519 -1.475911 5.033703 -1.675149 18.919319 -2.752300 1.026300 17.886500 -100.067109 8.652733 13.242858 23.787252 -33.273149 -4.748707 -0.094890 4.571943 19.263109 -7.125000 0.000000 0.000000 95.808673 -2.411031 16.782948 -18.904051 29.776969 -3.145155 -0.959406 -3.084610 17.103997 7.125000 0.000000 0.000000 
0.561398 17.035172 -5.343929 -1.176092 -6.356780 9.087816 -29.459073 -14.056098 -5.770434 -0.944982 7.800256 20.282148 -0.031691 8.423665 -17.395747 0.039200 1.277800 3.513600 34.203141 12.613552 -7.301885 0.610748 -9.010012 24.559998 0.072923 -9.703176 -19.293399 -0.072200 -1.733500 4.769700 1.125316 -1.213590 -5.406890 -3.197912 -0.773873 -1.462761 5.034766 -1.668037 18.913584 -2.751800 1.028200 17.880200 -100.059841 8.641396 13.246345 23.768969 -33.257034 -4.743336 -0.088698 4.570287 19.298359 -7.125000 0.000000 0.000000 95.825388 -2.413935 16.764964 -18.896156 29.774869 -3.143460 -0.958627 -3.084903 17.122083 7.125000 0.000000 0.000000 
0.563992 17.035496 -5.347063 -1.173978 -6.386545 9.093003 -29.470343 -14.049721 -5.779089 -0.946511 7.798996 20.274551 -0.034470 8.443281 -17.393748 0.039300 1.279900 3.519200 34.187882 12.634855 -7.320760 0.611430 -9.012856 24.560056 0.075902 -9.706810 -19.272251 -0.071400 -1.723300 4.741700 1.123408 -1.211104 -5.399858 -3.205543 -0.772556 -1.446538 5.035807 -1.665915 18.907951 -2.752700 1.029300 17.875400 -100.044657 8.623375 13.263964 23.745313 -33.234221 -4.735604 -0.082075 4.567296 19.334950 -7.125000 0.000000 0.000000 95.849801 -2.415618 16.738260 -18.887616 29.774819 -3.141955 -0.958947 -3.084138 17.140277 7.125000 0.000000 0.000000 
